<svg xmlns="http://www.w3.org/2000/svg" width="52.73" height="65.49" viewBox="0 0 52.73 65.49">
  <g id="Group_25" transform="translate(471.716 70.97)">
    <path id="Path_220" d="M-444.86-46.16a1.186,1.186,0,0,0,1.19-1.19h0v-3.77a1.186,1.186,0,0,0-1.19-1.19,1.186,1.186,0,0,0-1.19,1.19v3.77a1.193,1.193,0,0,0,1.19,1.19Z" fill="#14b4e1"/>
    <path id="Path_221" d="M-445.03-54.37a1.186,1.186,0,0,0,1.19-1.19V-69.78a1.186,1.186,0,0,0-1.19-1.19,1.186,1.186,0,0,0-1.19,1.19h0v14.22a1.18,1.18,0,0,0,1.19,1.19Z" fill="#14b4e1"/>
    <path id="Path_222" d="M-444.74-38.18a1.186,1.186,0,0,0-1.19,1.19h0v5.41a1.186,1.186,0,0,0,1.19,1.19,1.186,1.186,0,0,0,1.19-1.19h0v-5.41a1.193,1.193,0,0,0-1.19-1.19Z" fill="#14b4e1"/>
    <path id="Path_223" d="M-444.74-43.41a1.186,1.186,0,0,0-1.19,1.19h0v.95a1.186,1.186,0,0,0,1.19,1.19,1.186,1.186,0,0,0,1.19-1.19v-.95a1.193,1.193,0,0,0-1.19-1.19Z" fill="#14b4e1"/>
    <path id="Path_224" d="M-455.31-25.28a1.186,1.186,0,0,0,1.19-1.19V-40.66a1.186,1.186,0,0,0-1.19-1.19,1.186,1.186,0,0,0-1.19,1.19v14.19a1.193,1.193,0,0,0,1.19,1.19Z" fill="#14b4e1"/>
    <path id="Path_225" d="M-455.19-23.27a1.186,1.186,0,0,0-1.19,1.19h0v3.5a1.186,1.186,0,0,0,1.19,1.19A1.186,1.186,0,0,0-454-18.58h0v-3.5a1.193,1.193,0,0,0-1.19-1.19Z" fill="#14b4e1"/>
    <path id="Path_226" d="M-455.3-65.58a1.186,1.186,0,0,0-1.19,1.19v25.11a1.186,1.186,0,0,0,1.19,1.19,1.186,1.186,0,0,0,1.19-1.19h0V-64.39a1.193,1.193,0,0,0-1.19-1.19Z" fill="#14b4e1"/>
    <path id="Path_227" d="M-465.47-35.21a1.186,1.186,0,0,0,1.19-1.19v-8.24a1.186,1.186,0,0,0-1.19-1.19,1.186,1.186,0,0,0-1.19,1.19v8.24a1.18,1.18,0,0,0,1.19,1.19Z" fill="#14b4e1"/>
    <path id="Path_228" d="M-465.35-33.2a1.186,1.186,0,0,0-1.19,1.19h0v13.42a1.186,1.186,0,0,0,1.19,1.19,1.186,1.186,0,0,0,1.19-1.19V-32.01a1.193,1.193,0,0,0-1.19-1.19Z" fill="#14b4e1"/>
    <path id="Path_229" d="M-465.35-15.33a1.186,1.186,0,0,0-1.19,1.19h0v3.5a1.186,1.186,0,0,0,1.19,1.19,1.186,1.186,0,0,0,1.19-1.19h0v-3.5a1.193,1.193,0,0,0-1.19-1.19Z" fill="#14b4e1"/>
    <path id="Path_230" d="M-434.89-35.23a1.186,1.186,0,0,0,1.19-1.19h0V-53.7a1.193,1.193,0,0,0-1.19-1.19,1.193,1.193,0,0,0-1.19,1.19v17.28A1.193,1.193,0,0,0-434.89-35.23Z" fill="#14b4e1"/>
    <path id="Path_231" d="M-434.87-31.21a1.186,1.186,0,0,0-1.19,1.19h0v11.44a1.186,1.186,0,0,0,1.19,1.19,1.186,1.186,0,0,0,1.19-1.19V-30.03A1.191,1.191,0,0,0-434.87-31.21Z" fill="#14b4e1"/>
    <path id="Path_232" d="M-434.87-64.92a1.186,1.186,0,0,0-1.19,1.19h0v11.44a1.186,1.186,0,0,0,1.19,1.19,1.186,1.186,0,0,0,1.19-1.19V-63.74A1.191,1.191,0,0,0-434.87-64.92Z" fill="#14b4e1"/>
    <path id="Path_233" d="M-434.87-15.33a1.186,1.186,0,0,0-1.19,1.19h0v7.47a1.193,1.193,0,0,0,1.19,1.19,1.193,1.193,0,0,0,1.19-1.19v-7.47A1.193,1.193,0,0,0-434.87-15.33Z" fill="#14b4e1"/>
    <path id="Path_234" d="M-424.83-27.27a1.186,1.186,0,0,0,1.19-1.19h0V-44.64a1.193,1.193,0,0,0-1.19-1.19,1.193,1.193,0,0,0-1.19,1.19v16.18a1.18,1.18,0,0,0,1.19,1.19Z" fill="#14b4e1"/>
    <path id="Path_235" d="M-424.71-25.26a1.186,1.186,0,0,0-1.19,1.19h0v5.48a1.186,1.186,0,0,0,1.19,1.19,1.186,1.186,0,0,0,1.19-1.19v-5.49A1.191,1.191,0,0,0-424.71-25.26Z" fill="#14b4e1"/>
    <path id="Path_236" d="M-425.37-65.06a1.186,1.186,0,0,0,1.19-1.19h0v-3.5a1.193,1.193,0,0,0-1.19-1.19,1.193,1.193,0,0,0-1.19,1.19v3.5A1.193,1.193,0,0,0-425.37-65.06Z" fill="#14b4e1"/>
    <path id="Path_238" d="M-419.76-57.34h0c-.01-.02-.03-.04-.05-.07l-4.69-6.54a.9.9,0,0,0-.19-.2l-.16-.08-.36-.11h-.01l-.31.06-.29.14a.9.9,0,0,0-.19.2l-4.7,6.54a.435.435,0,0,0-.04.07,5.694,5.694,0,0,0,.02,5.74,6.3,6.3,0,0,0,4.91,3.17v.03h1.13v-.03a6.3,6.3,0,0,0,4.91-3.17A5.665,5.665,0,0,0-419.76-57.34Zm-1.65,4.8h0a4.4,4.4,0,0,1-5.99,1.69,4.425,4.425,0,0,1-1.69-1.69,3.766,3.766,0,0,1-.06-3.81l3.89-5.43,3.89,5.43a3.719,3.719,0,0,1-.04,3.81Z" fill="#14b4e1"/>
    <path id="Path_239" d="M-439.28-20.01h0c-.01-.02-.03-.04-.05-.07l-4.69-6.54a.9.9,0,0,0-.19-.2l-.16-.08-.36-.11h-.01l-.31.06-.29.14a.9.9,0,0,0-.19.2l-4.7,6.54a.435.435,0,0,0-.04.07,5.694,5.694,0,0,0,.02,5.74,6.3,6.3,0,0,0,4.91,3.17v.03h1.13v-.03a6.3,6.3,0,0,0,4.91-3.17A5.665,5.665,0,0,0-439.28-20.01Zm-1.65,4.8h0a4.4,4.4,0,0,1-5.99,1.69,4.425,4.425,0,0,1-1.69-1.69,3.766,3.766,0,0,1-.06-3.81l3.89-5.43,3.89,5.43a3.719,3.719,0,0,1-.04,3.81Z" fill="#14b4e1"/>
    <path id="Path_240" d="M-459.96-60.07h0c-.01-.02-.03-.04-.05-.07l-4.69-6.54a.9.9,0,0,0-.19-.2l-.16-.08-.36-.11h-.01l-.31.06-.29.14a.9.9,0,0,0-.19.2l-4.7,6.54a.435.435,0,0,0-.04.07,5.694,5.694,0,0,0,.02,5.74,6.3,6.3,0,0,0,4.91,3.17v.03h1.13v-.03a6.3,6.3,0,0,0,4.91-3.17A5.665,5.665,0,0,0-459.96-60.07Zm-1.65,4.8h0a4.4,4.4,0,0,1-5.99,1.69,4.425,4.425,0,0,1-1.69-1.69,3.766,3.766,0,0,1-.06-3.81l3.89-5.43,3.89,5.43a3.742,3.742,0,0,1-.04,3.81Z" fill="#14b4e1"/>
  </g>
</svg>
